<svg width="86" height="88" viewBox="0 0 86 88" fill="none" xmlns="http://www.w3.org/2000/svg">
<path d="M82.1835 14.5C82.1835 22.5081 75.6916 29 67.6835 29C59.6753 29 53.1835 22.5081 53.1835 14.5C53.1835 6.49187 59.6753 0 67.6835 0C75.6916 0 82.1835 6.49187 82.1835 14.5Z" fill="#D42AFF" fill-opacity="0.8"/>
<path d="M47.1835 15C47.1835 23.2843 40.4677 30 32.1835 30C23.8992 30 17.1835 23.2843 17.1835 15C17.1835 6.71573 23.8992 0 32.1835 0C40.4677 0 47.1835 6.71573 47.1835 15Z" fill="white"/>
<path d="M44.1835 15C44.1835 21.6274 38.8109 27 32.1835 27C25.5561 27 20.1835 21.6274 20.1835 15C20.1835 8.37258 25.5561 3 32.1835 3C38.8109 3 44.1835 8.37258 44.1835 15Z" fill="#261B34"/>
<path d="M15.1835 47C15.1835 41.4772 19.6606 37 25.1835 37H39.1835C44.7063 37 49.1835 41.4772 49.1835 47V77C49.1835 82.5228 44.7063 87 39.1835 87H25.1835C19.6606 87 15.1835 82.5228 15.1835 77V47Z" fill="white"/>
<path d="M51 49C51 41.8203 56.8203 36 64 36H73C80.1797 36 86 41.8203 86 49V74C86 81.1797 80.1797 87 73 87H64C56.8203 87 51 81.1797 51 74V49Z" fill="white"/>
<path d="M48.1835 51C48.1835 43.8203 54.0038 38 61.1835 38H69.1835C76.3632 38 82.1835 43.8203 82.1835 51V75C82.1835 82.1797 76.3632 88 69.1835 88H61.1835C54.0038 88 48.1835 82.1797 48.1835 75V51Z" fill="white"/>
<path d="M12.8345 36.0542C16.6658 37.1887 18.7163 41.672 17.4146 46.068C16.1129 50.464 11.9518 53.108 8.12054 51.9735C4.2893 50.839 2.23873 46.3557 3.54046 41.9597C4.84219 37.5637 9.00328 34.9197 12.8345 36.0542Z" fill="white"/>
<path d="M20.9805 28.9991C23.8281 31.4492 22.5941 37.5526 18.2243 42.6314C13.8545 47.7102 8.00365 49.8412 5.15605 47.3912C2.30844 44.9411 3.54241 38.8378 7.9122 33.7589C12.282 28.6801 18.1328 26.5491 20.9805 28.9991Z" fill="white"/>
<path d="M31.0878 30.8308C31.8033 34.051 27.3221 37.786 21.0789 39.1732C14.8357 40.5604 9.19449 39.0744 8.47899 35.8541C7.7635 32.6339 12.2446 28.8989 18.4879 27.5117C24.7311 26.1245 30.3723 27.6105 31.0878 30.8308Z" fill="white"/>
<path d="M45.6728 33.5424C45.6574 36.5341 40.1691 38.9312 33.4143 38.8965C26.6594 38.8618 21.196 36.4085 21.2113 33.4168C21.2267 30.4252 26.715 28.0281 33.4699 28.0628C40.2247 28.0975 45.6882 30.5508 45.6728 33.5424Z" fill="white"/>
<path d="M57.3004 39.4798C55.9718 42.6391 49.5413 42.949 42.9374 40.1719C36.3335 37.3948 32.057 32.5824 33.3855 29.4231C34.7141 26.2638 41.1446 25.954 47.7485 28.7311C54.3524 31.5082 58.6289 36.3206 57.3004 39.4798Z" fill="white"/>
<path d="M55.8984 45.8396C54.6364 48.5686 51.7262 49.9082 49.3984 48.8317C47.0706 47.7552 46.2066 44.6702 47.4686 41.9412C48.7306 39.2123 51.6408 37.8727 53.9686 38.9492C56.2964 40.0257 57.1604 43.1107 55.8984 45.8396Z" fill="white"/>
<path d="M64.4575 42.1718C65.963 38.9164 61.2405 33.529 53.9094 30.1387C46.5783 26.7484 39.4149 26.639 37.9094 29.8944C36.4039 33.1499 41.1265 38.5373 48.4575 41.9276C55.7886 45.3179 62.9521 45.4272 64.4575 42.1718Z" fill="white"/>
<path d="M77.6835 38.5C78.6301 35.0875 71.1097 36.4336 63.6388 34.3612C56.168 32.2888 47.6301 26.0875 46.6835 29.5C45.7369 32.9125 53.2398 37.1753 60.7107 39.2477C68.1816 41.32 76.7369 41.9125 77.6835 38.5Z" fill="white"/>
<path d="M15 69H86V88H15V69Z" fill="#261B34"/>
<path d="M17.1835 49C17.1835 42.3726 22.5561 37 29.1835 37H35.1835C41.8109 37 47.1835 42.3726 47.1835 49V71C47.1835 77.6274 41.8109 83 35.1835 83H32.1835H29.1835C22.5561 83 17.1835 77.6274 17.1835 71V60V49Z" fill="#261B34"/>
</svg>
