<svg width="37" height="36" viewBox="0 0 37 36" fill="none" xmlns="http://www.w3.org/2000/svg">
<path d="M35.358 5.93182C35.358 9.20787 32.565 11.8636 29.1197 11.8636C25.6743 11.8636 22.8813 9.20787 22.8813 5.93182C22.8813 2.65577 25.6743 0 29.1197 0C32.565 0 35.358 2.65577 35.358 5.93182Z" fill="#D42AFF" fill-opacity="0.8"/>
<path d="M20.2999 6.13636C20.2999 9.52538 17.4105 12.2727 13.8464 12.2727C10.2822 12.2727 7.39288 9.52538 7.39288 6.13636C7.39288 2.74734 10.2822 0 13.8464 0C17.4105 0 20.2999 2.74734 20.2999 6.13636Z" fill="white"/>
<path d="M19.0092 6.13639C19.0092 8.8476 16.6977 11.0455 13.8464 11.0455C10.9951 11.0455 8.68359 8.8476 8.68359 6.13639C8.68359 3.42517 10.9951 1.22729 13.8464 1.22729C16.6977 1.22729 19.0092 3.42517 19.0092 6.13639Z" fill="#261B34"/>
<path d="M6.53241 19.2273C6.53241 16.9679 8.45863 15.1364 10.8347 15.1364H16.858C19.2341 15.1364 21.1603 16.9679 21.1603 19.2273V31.5C21.1603 33.7593 19.2341 35.5909 16.858 35.5909H10.8347C8.45863 35.5909 6.53241 33.7593 6.53241 31.5V19.2273Z" fill="white"/>
<path d="M21.9418 20.0455C21.9418 17.1083 24.4459 14.7273 27.5349 14.7273H31.4069C34.4959 14.7273 37 17.1083 37 20.0455V30.2727C37 33.2099 34.4959 35.5909 31.4069 35.5909H27.5349C24.4459 35.5909 21.9418 33.2099 21.9418 30.2727V20.0455Z" fill="white"/>
<path d="M20.7301 20.8636C20.7301 17.9264 23.2342 15.5454 26.3231 15.5454H29.765C32.8539 15.5454 35.358 17.9264 35.358 20.8636V30.6818C35.358 33.6189 32.8539 36 29.765 36H26.3231C23.2342 36 20.7301 33.6189 20.7301 30.6818V20.8636Z" fill="white"/>
<path d="M5.52181 14.7494C7.17014 15.2135 8.05236 17.0476 7.49231 18.846C6.93227 20.6443 5.14203 21.726 3.49371 21.2619C1.84538 20.7977 0.963163 18.9636 1.52321 17.1653C2.08326 15.3669 3.87349 14.2853 5.52181 14.7494Z" fill="white"/>
<path d="M9.02647 11.8633C10.2516 12.8656 9.72071 15.3624 7.84069 17.4401C5.96066 19.5178 3.44343 20.3896 2.2183 19.3873C0.993166 18.385 1.52406 15.8882 3.40409 13.8105C5.28411 11.7328 7.80134 10.861 9.02647 11.8633Z" fill="white"/>
<path d="M13.375 12.6126C13.6828 13.93 11.7549 15.458 9.06884 16.0255C6.38279 16.5929 3.95578 15.985 3.64795 14.6677C3.34012 13.3503 5.26805 11.8223 7.95409 11.2548C10.6401 10.6874 13.0671 11.2953 13.375 12.6126Z" fill="white"/>
<path d="M19.6499 13.7219C19.6433 14.9458 17.282 15.9264 14.3759 15.9122C11.4697 15.8981 9.11918 14.8944 9.12579 13.6706C9.1324 12.4467 11.4937 11.4661 14.3998 11.4803C17.306 11.4945 19.6565 12.4981 19.6499 13.7219Z" fill="white"/>
<path d="M24.6525 16.1508C24.0809 17.4433 21.3143 17.57 18.4731 16.4339C15.6319 15.2978 13.792 13.3291 14.3635 12.0367C14.9351 10.7443 17.7018 10.6175 20.543 11.7536C23.3842 12.8897 25.2241 14.8584 24.6525 16.1508Z" fill="white"/>
<path d="M24.0493 18.7526C23.5063 19.869 22.2543 20.417 21.2528 19.9766C20.2513 19.5362 19.8795 18.2742 20.4225 17.1578C20.9655 16.0414 22.2175 15.4934 23.219 15.9338C24.2205 16.3741 24.5922 17.6362 24.0493 18.7526Z" fill="white"/>
<path d="M27.7317 17.2521C28.3795 15.9203 26.3477 13.7164 23.1936 12.3294C20.0395 10.9425 16.9576 10.8978 16.3099 12.2295C15.6622 13.5613 17.694 15.7652 20.848 17.1522C24.0021 18.5391 27.084 18.5838 27.7317 17.2521Z" fill="white"/>
<path d="M33.4219 15.7499C33.8292 14.3539 30.5937 14.9046 27.3795 14.0568C24.1653 13.209 20.492 10.6721 20.0847 12.0681C19.6775 13.4641 22.9055 15.208 26.1197 16.0558C29.3339 16.9036 33.0147 17.146 33.4219 15.7499Z" fill="white"/>
<path d="M6.45349 28.2273H37V36H6.45349V28.2273Z" fill="#261B34"/>
<path d="M7.39288 20.0454C7.39288 17.3342 9.70434 15.1364 12.5557 15.1364H15.1371C17.9884 15.1364 20.2999 17.3342 20.2999 20.0454V29.0454C20.2999 31.7567 17.9884 33.9545 15.1371 33.9545H13.8464H12.5557C9.70434 33.9545 7.39288 31.7567 7.39288 29.0454V24.5454V20.0454Z" fill="#261B34"/>
</svg>
