<svg width="44" height="43" viewBox="0 0 44 43" fill="none" xmlns="http://www.w3.org/2000/svg">
<path d="M42.0474 7.08523C42.0474 10.9983 38.7259 14.1705 34.6287 14.1705C30.5316 14.1705 27.2101 10.9983 27.2101 7.08523C27.2101 3.17216 30.5316 0 34.6287 0C38.7259 0 42.0474 3.17216 42.0474 7.08523Z" fill="#D42AFF" fill-opacity="0.8"/>
<path d="M24.1404 7.32955C24.1404 11.3775 20.7044 14.6591 16.466 14.6591C12.2275 14.6591 8.79156 11.3775 8.79156 7.32955C8.79156 3.28155 12.2275 0 16.466 0C20.7044 0 24.1404 3.28155 24.1404 7.32955Z" fill="white"/>
<path d="M22.6055 7.32958C22.6055 10.568 19.8567 13.1932 16.466 13.1932C13.0752 13.1932 10.3264 10.568 10.3264 7.32958C10.3264 4.09118 13.0752 1.46594 16.466 1.46594C19.8567 1.46594 22.6055 4.09118 22.6055 7.32958Z" fill="#261B34"/>
<path d="M7.76831 22.966C7.76831 20.2673 10.0589 18.0796 12.8846 18.0796H20.0474C22.873 18.0796 25.1637 20.2673 25.1637 22.966V37.625C25.1637 40.3237 22.873 42.5114 20.0474 42.5114H12.8846C10.0589 42.5114 7.76831 40.3237 7.76831 37.625V22.966Z" fill="white"/>
<path d="M26.093 23.9432C26.093 20.435 29.0708 17.5909 32.7442 17.5909H37.3488C41.0222 17.5909 44 20.435 44 23.9432V36.1591C44 39.6674 41.0222 42.5114 37.3488 42.5114H32.7442C29.0708 42.5114 26.093 39.6674 26.093 36.1591V23.9432Z" fill="white"/>
<path d="M24.652 24.9205C24.652 21.4122 27.6299 18.5682 31.3032 18.5682H35.3962C39.0696 18.5682 42.0474 21.4122 42.0474 24.9205V36.6478C42.0474 40.156 39.0696 43.0001 35.3962 43.0001H31.3032C27.6299 43.0001 24.652 40.156 24.652 36.6478V24.9205Z" fill="white"/>
<path d="M6.56653 17.6173C8.5267 18.1717 9.57582 20.3624 8.90982 22.5105C8.24382 24.6585 6.11489 25.9504 4.15473 25.3961C2.19456 24.8417 1.14543 22.651 1.81143 20.503C2.47743 18.3549 4.60636 17.063 6.56653 17.6173Z" fill="white"/>
<path d="M10.7342 14.1701C12.1911 15.3673 11.5598 18.3496 9.32406 20.8313C7.08835 23.313 4.09489 24.3543 2.63798 23.1571C1.18106 21.9599 1.8124 18.9776 4.0481 16.4959C6.28381 14.0142 9.27727 12.9729 10.7342 14.1701Z" fill="white"/>
<path d="M15.9054 15.0651C16.2715 16.6386 13.9788 18.4637 10.7846 19.1415C7.59036 19.8193 4.70418 19.0932 4.33812 17.5197C3.97205 15.9461 6.26472 14.1211 9.45893 13.4432C12.6531 12.7654 15.5393 13.4915 15.9054 15.0651Z" fill="white"/>
<path d="M23.3675 16.39C23.3596 17.8518 20.5516 19.0231 17.0956 19.0062C13.6397 18.9892 10.8444 17.7905 10.8523 16.3286C10.8601 14.8668 13.6681 13.6955 17.1241 13.7124C20.5801 13.7294 23.3753 14.9282 23.3675 16.39Z" fill="white"/>
<path d="M29.3165 19.2913C28.6367 20.8351 25.3467 20.9865 21.968 19.6295C18.5892 18.2725 16.4012 15.921 17.081 14.3772C17.7607 12.8335 21.0507 12.6821 24.4295 14.0391C27.8082 15.3961 29.9962 17.7476 29.3165 19.2913Z" fill="white"/>
<path d="M28.5992 22.399C27.9535 23.7324 26.4646 24.387 25.2736 23.861C24.0826 23.335 23.6406 21.8275 24.2863 20.4941C24.9319 19.1606 26.4209 18.506 27.6118 19.032C28.8028 19.5581 29.2449 21.0655 28.5992 22.399Z" fill="white"/>
<path d="M32.9783 20.6067C33.7485 19.016 31.3323 16.3835 27.5816 14.7269C23.8308 13.0703 20.1658 13.0168 19.3955 14.6076C18.6253 16.1983 21.0415 18.8308 24.7922 20.4874C28.543 22.144 32.208 22.1974 32.9783 20.6067Z" fill="white"/>
<path d="M39.7451 18.8124C40.2294 17.145 36.3817 17.8027 32.5594 16.7901C28.7371 15.7775 24.3689 12.7472 23.8846 14.4147C23.4003 16.0822 27.239 18.1652 31.0613 19.1778C34.8836 20.1904 39.2607 20.4799 39.7451 18.8124Z" fill="white"/>
<path d="M7.67444 33.7159H44V43H7.67444V33.7159Z" fill="#261B34"/>
<path d="M8.79156 23.9432C8.79156 20.7048 11.5403 18.0796 14.9311 18.0796H18.0009C21.3916 18.0796 24.1404 20.7048 24.1404 23.9432V34.6932C24.1404 37.9316 21.3916 40.5569 18.0009 40.5569H16.466H14.9311C11.5403 40.5569 8.79156 37.9316 8.79156 34.6932V29.3182V23.9432Z" fill="#261B34"/>
</svg>
