<svg width="56" height="56" viewBox="0 0 56 56" fill="none" xmlns="http://www.w3.org/2000/svg">
<path d="M28 6.65C32.06 6.65 35.35 9.94 35.35 14C35.35 18.06 32.06 21.35 28 21.35C23.94 21.35 20.65 18.06 20.65 14C20.65 9.94 23.94 6.65 28 6.65ZM28 38.15C38.395 38.15 49.35 43.26 49.35 45.5V49.35H6.65V45.5C6.65 43.26 17.605 38.15 28 38.15ZM28 0C20.265 0 14 6.265 14 14C14 21.735 20.265 28 28 28C35.735 28 42 21.735 42 14C42 6.265 35.735 0 28 0ZM28 31.5C18.655 31.5 0 36.19 0 45.5V56H56V45.5C56 36.19 37.345 31.5 28 31.5Z" fill="black"/>
</svg>
